<?xml version="1.0" encoding="UTF-8" standalone="no"?>
<!DOCTYPE svg PUBLIC "-//W3C//DTD SVG 1.1//EN" "http://www.w3.org/Graphics/SVG/1.1/DTD/svg11.dtd">
<!-- Created with Vectornator (http://vectornator.io/) -->
<svg height="100%" stroke-miterlimit="10" style="fill-rule:nonzero;clip-rule:evenodd;stroke-linecap:round;stroke-linejoin:round;" version="1.1" viewBox="924.219 1072.95 160.079 138.245" width="100%" xml:space="preserve" xmlns="http://www.w3.org/2000/svg" xmlns:vectornator="http://vectornator.io" xmlns:xlink="http://www.w3.org/1999/xlink">
<defs/>
<clipPath id="ArtboardFrame">
<rect height="138.245" width="160.079" x="924.219" y="1072.95"/>
</clipPath>
<g clip-path="url(#ArtboardFrame)" id="Layer" vectornator:layerName="Layer">
<g opacity="1" vectornator:layerName="path">
<path d="M1031.71 1179.84C1032.71 1176.58 1034.96 1172.07 1032.97 1154.28C1029.98 1127.59 1032.78 1126.67 1028.91 1120.99C1026.44 1117.38 1023.01 1115.97 1015.29 1113.17C1010.38 1127.88 1007.51 1143.31 1007.51 1153.13C1007.51 1168.46 1011.05 1183.08 1021.63 1191.5C1026.55 1188.66 1030.18 1184.85 1031.71 1179.84" fill="#61b8e8" fill-rule="nonzero" opacity="1" stroke="none" vectornator:layerName="path"/>
<path d="M965.137 1168.76C971.922 1168.04 979.701 1170.4 982.056 1177.63C982.056 1177.63 987.394 1158.45 999.246 1156.1C999.246 1156.1 981.311 1168.17 986.386 1198.84C999.275 1198.66 1012.63 1196.7 1021.63 1191.5C1011.05 1183.08 1007.51 1168.46 1007.51 1153.13C1007.51 1143.31 1010.38 1127.88 1015.29 1113.17C1011.18 1111.67 1005.86 1109.79 998.812 1106.97C983.012 1100.65 968.764 1096.56 959.736 1098.21C934.859 1102.76 918.857 1162.25 925.879 1180.12C932.266 1196.36 952.939 1196.6 969.433 1198.11C975.322 1209.5 986.198 1211.2 986.198 1211.2C986.198 1211.2 982.83 1208.39 981.936 1198.96L981.932 1198.96C981.314 1194.82 981.948 1173.56 965.137 1168.76" fill="#7ec5b0" fill-rule="nonzero" opacity="1" stroke="none" vectornator:layerName="path"/>
<path d="M1045.9 1072.95C1033.23 1072.95 1022.23 1092.34 1015.29 1113.17C1023.01 1115.97 1026.44 1117.38 1028.91 1120.99C1032.78 1126.67 1029.98 1127.59 1032.97 1154.28C1034.96 1172.07 1032.71 1176.58 1031.71 1179.84C1030.18 1184.85 1026.56 1188.66 1021.63 1191.5C1025.9 1194.9 1031.3 1197.29 1038.08 1198.31C1037.29 1208.27 1033.76 1211.2 1033.76 1211.2C1033.76 1211.2 1044.43 1210.57 1049.91 1198.69C1062.34 1165.39 1038.81 1120.99 1038.81 1120.99C1047.38 1127.75 1055.34 1157.54 1055.34 1157.54C1057.32 1148.67 1064.28 1144.53 1070 1145.42C1055.93 1151.27 1057.92 1171.74 1055.21 1198.01C1078.43 1194.25 1084.3 1174.49 1084.3 1153.13C1084.3 1129.42 1067.53 1072.95 1045.9 1072.95" fill="#4b3389" fill-rule="nonzero" opacity="1" stroke="none" vectornator:layerName="path"/>
</g>
</g>
</svg>
