<?xml version="1.0" standalone="no"?>
<!DOCTYPE svg PUBLIC "-//W3C//DTD SVG 20010904//EN"
 "http://www.w3.org/TR/2001/REC-SVG-20010904/DTD/svg10.dtd">
<svg version="1.0" xmlns="http://www.w3.org/2000/svg"
 width="1080.000000pt" height="1080.000000pt" viewBox="0 0 1080.000000 1080.000000"
 preserveAspectRatio="xMidYMid meet">
<metadata>
Created by potrace 1.14, written by Peter Selinger 2001-2017
</metadata>
<g transform="translate(0.000000,1080.000000) scale(0.100000,-0.100000)"
fill="#000000" stroke="none">
<path d="M7768 9444 c-2 -1 -21 -5 -43 -7 -119 -13 -292 -89 -425 -187 -120
-88 -298 -272 -416 -430 -195 -261 -351 -534 -539 -945 -51 -111 -192 -469
-245 -620 -29 -82 -54 -152 -55 -154 -4 -3 -123 34 -170 54 -16 7 -95 36 -175
65 -164 59 -237 87 -500 190 -102 40 -225 88 -275 107 -49 18 -99 38 -110 43
-32 14 -234 87 -305 110 -36 12 -74 25 -85 30 -11 5 -78 27 -150 49 -71 23
-143 45 -160 51 -81 25 -364 99 -445 115 -14 3 -34 7 -45 9 -252 51 -391 65
-600 61 -188 -4 -201 -5 -330 -41 -473 -133 -931 -623 -1311 -1403 -56 -115
-84 -179 -168 -376 -7 -16 -23 -55 -34 -85 -12 -30 -33 -85 -47 -123 -41 -108
-152 -448 -170 -524 -3 -10 -21 -76 -40 -148 -54 -202 -133 -577 -151 -720 -3
-22 -7 -51 -9 -65 -9 -47 -35 -285 -41 -375 -14 -184 -7 -553 11 -640 3 -11 7
-36 9 -55 20 -140 91 -342 149 -425 12 -16 21 -32 21 -35 -2 -9 58 -94 110
-155 203 -238 485 -397 891 -505 102 -27 217 -53 282 -64 190 -32 262 -42 348
-51 33 -3 71 -8 85 -11 14 -2 54 -6 90 -9 36 -3 85 -7 110 -10 47 -4 138 -12
230 -20 30 -3 84 -8 120 -11 72 -7 124 -11 157 -13 14 -1 30 -16 49 -48 49
-85 97 -157 144 -213 25 -30 54 -65 65 -79 67 -81 270 -235 400 -303 119 -62
355 -142 338 -115 -4 7 -22 31 -40 55 -73 96 -153 320 -178 497 -3 22 -8 49
-10 60 -2 11 -7 49 -10 85 -3 36 -7 88 -10 115 -2 28 -7 82 -10 120 -3 39 -7
84 -10 100 -2 17 -7 57 -11 90 -3 33 -8 69 -10 80 -2 11 -11 61 -20 110 -28
167 -103 394 -178 543 -85 169 -226 339 -371 447 -65 49 -208 123 -295 154
-60 21 -56 23 65 23 373 3 686 -162 815 -429 17 -34 30 -67 30 -72 0 -27 18
-7 29 32 13 46 18 60 81 217 90 223 213 442 338 600 64 81 207 215 283 265 78
51 192 104 243 112 29 5 28 3 -19 -34 -60 -47 -189 -183 -249 -262 -98 -128
-159 -226 -227 -365 -22 -45 -45 -89 -50 -99 -28 -52 -98 -256 -128 -374 -68
-267 -86 -425 -86 -758 0 -194 5 -296 20 -400 20 -148 29 -195 39 -196 41 -4
360 8 436 16 19 2 76 6 125 10 50 3 97 8 105 10 8 2 44 7 80 10 36 3 72 8 80
10 8 2 40 7 70 10 43 5 388 72 460 89 192 47 427 133 606 223 l91 45 94 -65
c142 -98 381 -216 504 -247 17 -5 73 -19 125 -33 52 -14 128 -31 167 -38 l73
-12 -6 -46 c-3 -25 -7 -62 -10 -81 -2 -19 -7 -53 -10 -75 -7 -55 -41 -188 -66
-260 -33 -94 -64 -158 -113 -229 l-44 -65 32 5 c160 30 295 81 432 167 202
125 391 353 482 577 26 64 88 261 98 309 2 9 9 39 15 66 6 28 14 61 16 75 3
14 11 57 19 95 7 39 16 93 20 120 3 28 8 64 10 80 33 250 38 757 10 980 -2 17
-7 57 -10 90 -6 61 -9 84 -20 165 -12 96 -15 116 -20 140 -3 14 -7 41 -10 60
-3 19 -7 46 -10 60 -3 14 -12 61 -20 105 -77 420 -230 946 -418 1435 -73 190
-96 244 -165 400 -11 25 -30 68 -42 95 -13 28 -44 94 -71 148 -26 53 -46 97
-43 97 9 0 96 -95 138 -150 43 -57 68 -95 128 -190 50 -80 175 -334 237 -480
29 -69 58 -138 66 -155 70 -158 272 -753 351 -1035 14 -52 31 -99 36 -105 6
-7 9 -7 7 0 -9 38 71 236 135 333 155 236 365 362 619 371 37 1 67 -2 67 -6 0
-5 -17 -17 -37 -27 -115 -54 -242 -163 -331 -280 -52 -69 -136 -228 -167 -316
-9 -25 -22 -63 -30 -85 -30 -86 -90 -353 -101 -445 -3 -25 -7 -52 -9 -60 -6
-21 -14 -83 -30 -238 -3 -26 -7 -65 -10 -87 -2 -22 -7 -71 -10 -110 -4 -38 -8
-90 -10 -114 -3 -24 -7 -85 -10 -135 -3 -50 -8 -111 -10 -136 -2 -25 -7 -83
-10 -130 -3 -47 -8 -114 -10 -150 -3 -36 -7 -99 -10 -140 -3 -41 -7 -101 -10
-132 -3 -32 -7 -85 -10 -118 -3 -33 -7 -86 -10 -117 -3 -32 -8 -83 -10 -113
-3 -30 -7 -76 -10 -101 l-6 -47 48 9 c198 37 402 104 566 185 329 163 591 426
770 771 37 71 145 330 151 362 1 9 13 49 25 90 13 41 24 81 26 90 2 9 13 59
24 111 30 138 55 297 66 410 4 36 8 76 10 89 24 150 24 732 -1 916 -2 17 -6
57 -9 90 -3 33 -8 71 -10 85 -4 26 -14 96 -20 140 -17 117 -29 194 -45 275
-16 80 -22 112 -35 185 -8 44 -89 388 -111 470 -14 52 -27 103 -29 114 -3 10
-12 44 -21 75 -9 31 -18 63 -19 71 -17 75 -172 552 -233 715 -261 697 -546
1228 -851 1585 -116 135 -281 282 -392 349 -92 56 -232 112 -314 126 -42 7
-202 15 -207 9z"/>
</g>
</svg>
